<?xml version="1.0" encoding="UTF-8"?>
<svg width="1620.4" height="328.42" version="1.0" viewBox="0 0 1620.4 328.42203" xmlns="http://www.w3.org/2000/svg" xmlnsCc="http://creativecommons.org/ns#" xmlnsDc="http://purl.org/dc/elements/1.1/" xmlnsRdf="http://www.w3.org/1999/02/22-rdf-syntax-ns#">
<metadata>
<rdfRDF>
<ccWork rdfAbout="">
<dcFormat>image/svg+xml</dcFormat>
<dcType rdfResource="http://purl.org/dc/dcmitype/StillImage"/>
<dcTitle/>
</ccWork>
</rdfRDF>
</metadata>
<g transform="translate(-1189.8 -961.88)" fill="#ff4655">
<path d="m1193.1 1287.3-3.3-3.2v-158.6c0-97.4 0.6-159.5 1.5-160.8 1.2-2 21-2.3 161.1-2.7 144-0.3 159.9-0.2 162 2.1 2.1 2.1 2.4 18.2 2.4 161.1v158.9l-3.3 3.2c-3.3 3-4.4 3-160.2 3-155.9 0-156.9 0-160.2-3zm307.3-161.3v-147.8h-294v295.6h294z"/>
<path d="m1320.9 1187.2c-3.2-3.8-6.9-8.4-8.1-10.1-1.2-1.8-3-4.1-4.1-5.1-1.1-1.2-3.9-4.5-6.2-7.5-2.3-3.2-5-6.5-6-7.5-1.1-1.2-3.8-4.5-6-7.5-2.3-3.2-5-6.5-6-7.5-1.1-1.2-3.8-4.5-6-7.5-2.3-3.2-5-6.5-5.9-7.5-2.6-2.7-2.9-67.8-0.3-67.8 1.8 0 3.6 1.8 9.2 9.3 2.3 3 5 6.3 6 7.5 1.1 1.1 3.8 4.4 6 7.5 2.3 3 5 6.3 6 7.5 1.1 1.1 3.8 4.4 6 7.5 2.3 3 5 6.3 6 7.5 1.1 1.1 3.8 4.4 6 7.5 2.3 3 5 6.3 6 7.5 1.1 1.1 3.8 4.4 6 7.5 2.3 3 5 6.3 6 7.5 1.1 1.1 3.8 4.4 6 7.5 2.3 3 5 6.3 6 7.5 1.1 1.1 3.8 4.4 6 7.5 2.3 3 5 6.3 6 7.5 1.1 1.1 3.8 4.4 6 7.5 2.3 3 5.1 6.3 6.2 7.5 4.1 4.1 8.4 11.3 7.5 12.3-0.5 0.5-12.6 0.9-26.7 0.9h-25.8l-5.9-7.1z"/>
<path d="m1363.8 1146.6c0-1.4 4.2-7.7 7.1-10.5 1.1-1.2 3.9-4.5 6.2-7.5 2.3-3.2 5-6.5 6-7.5 1.1-1.2 3.8-4.5 6-7.5 2.3-3.2 5-6.5 6-7.5 1.1-1.2 3.8-4.5 6-7.5 2.3-3.2 5-6.5 6-7.5 1.1-1.2 3.8-4.5 6-7.5 2.3-3.2 5-6.5 6-7.5 1.1-1.2 3.8-4.5 6-7.5 3.8-5.3 9.2-10.8 10.4-10.8 0.2 0 0.5 15.2 0.5 33.6v33.5l-4.5 5.9c-2.6 3.3-6.8 8.4-9.2 11.6l-4.7 5.6h-26.9c-14.7 0-26.9-0.5-26.9-1.2z"/>
<path d="m2064.5 1210.1c-19.1-3.6-32.3-10.7-46.1-24.5-6-6-11-11.9-11-12.9 0-1.2-0.5-2.4-1.1-2.7-1.4-0.5-6.9-11.7-9.2-18.5-3.8-10.7-5.1-26.3-3.3-36.5 2-11.1 4.5-19.8 6.3-21.9 0.6-0.9 1.2-2.4 1.2-3.6 0-3 11.1-18.6 18.3-25.8 8-7.7 20.1-15 32.9-19.7 7.8-2.9 12.6-3.5 26.1-3.5 17.9 0 23.3 1.2 38.3 8.6 21.5 10.4 37.5 29.3 44.6 52.4 3.5 11.1 3.5 38.4 0 48.3-5.9 16.5-14 29.6-23.4 38.1-5.4 4.8-20.7 15.3-22.4 15.3-0.8 0-3.3 1.1-5.9 2.3-5 2.4-26.1 6.9-32 6.6-2.1-0.2-8.1-1.1-13.5-2.1zm37.8-32.7c11.6-5.7 21-15.5 26.9-27.6 4.2-8.7 4.7-11.4 4.8-23 0.2-28.1-15.3-48.9-41.9-56.7-23.3-6.8-50.3 6.2-62.1 29.6-9 17.7-7.7 42 3.2 58.1 5 7.4 15.2 16.5 21.5 19.2 2.6 1.1 6.3 2.7 8.4 3.6 2.1 1.1 9.8 1.7 17.3 1.4 11.4-0.3 14.9-1.1 22.1-4.5z"/>
<path d="m1610.7 1206c-0.5-1.1-0.6-37.7-0.5-81.5l0.5-79.5 14.1-0.5c10.4-0.3 14.6 0.2 15.5 1.5 0.6 1.1 1.2 26.6 1.2 56.7v54.8l4.2-4.5c2.3-2.4 5.9-6.9 8.1-10.1 2.3-3 5-6.3 6-7.5 1.1-1.1 3.8-4.4 6-7.5 2.3-3 5-6.3 6-7.5 1.1-1.1 4.4-5.1 7.2-8.7 2.9-3.8 6-7.8 7.1-9s5.3-6.6 9.5-12 8.4-10.8 9.5-12 4.2-5.3 7.1-9c2.9-3.6 6.2-7.7 7.2-8.7 1.1-1.2 3.8-4.5 6-7.5 7.1-9.6 6.2-9.3 26.4-9.3 10.5 0 18.9 0.6 18.9 1.4s-0.6 1.7-1.2 2-3.5 3.5-6.3 7.2c-2.9 3.6-6.2 7.7-7.2 8.7-1.1 1.2-3.8 4.5-6 7.5-2.3 3.2-5 6.5-6 7.5-1.1 1.2-3.8 4.5-6 7.5-2.3 3.2-5 6.5-6 7.5-1.1 1.2-3.8 4.5-6 7.5-2.3 3.2-5 6.5-6 7.5-1.1 1.2-3.8 4.5-6 7.5-2.3 3.2-5 6.5-6 7.5-1.1 1.2-3.8 4.5-6 7.5-2.3 3.2-5 6.5-6 7.5-1.1 1.2-3.8 4.5-6 7.5-2.3 3.2-5 6.5-6 7.5-1.1 1.2-3.8 4.5-6 7.5-2.3 3.2-5 6.5-6 7.5-1.1 1.2-3.8 4.5-6 7.5-2.3 3.2-5 6.5-6 7.5-1.1 1.2-3.6 4.5-5.9 7.5-2.3 3.2-6.6 8.1-9.6 11.3l-5.6 5.6h-13.8c-9.5 0-13.8-0.6-14.3-1.8z"/>
<path d="m1693.3 1206.6c-0.5-0.8 0.3-2.7 1.8-4.2 1.4-1.5 4.4-5.3 6.6-8.4 2.3-3 5-6.3 6-7.5 1.1-1.1 3.8-4.4 6-7.5 2.3-3 5-6.3 6-7.5 1.1-1.1 3.8-4.4 6-7.5 2.3-3 5-6.3 6-7.5 1.1-1.1 3.8-4.4 6-7.5 2.3-3 5-6.3 6-7.5 1.1-1.1 3.8-4.4 6-7.5 2.3-3 5-6.3 6-7.5 1.1-1.1 3.8-4.4 6-7.5 2.3-3 5-6.3 6-7.5 1.1-1.1 3.8-4.4 6-7.5 2.3-3 5-6.3 6-7.5 1.1-1.1 3.8-4.4 6-7.5 2.3-3 5-6.3 6-7.5 1.1-1.1 3.8-4.4 6-7.5 2.3-3 5-6.3 6-7.5 1.1-1.1 3.9-4.7 6.3-7.8 2.4-3.2 6.5-7.8 8.9-10.1 4.4-4.2 5.1-4.4 18.6-4.4h14l-0.3 81.5-0.5 81.3h-14.7c-13.1 0-15-0.3-17-3-1.2-1.7-3-4.1-4.1-5.3s-4.2-5.3-7.1-9c-2.9-3.6-6.2-7.7-7.2-8.7-1.1-1.2-3.8-4.5-6-7.5-2.3-3.2-5-6.5-6-7.5-1.1-1.2-3.8-4.5-6-7.5-2.3-3.2-4.7-6-5.6-6.6-1.7-1.2-5.9 3-14.3 13.8-2.9 3.8-5.6 7.1-6 7.5-0.5 0.5-3.2 3.8-6 7.5-2.9 3.8-5.6 7.1-6 7.5-0.5 0.5-3.2 3.8-6 7.5-9 11.7-8 11.3-27.2 11.7-9.8 0.3-17.9 0-18.5-0.9zm128.1-80.9v-35.7l-4.2 4.5c-2.3 2.6-5.9 6.9-8.1 10.1-2.3 3-5 6.3-6 7.5-1.1 1.1-3.9 4.5-6.2 7.7-4.2 5.6-4.2 5.7-1.7 9.8 1.5 2.3 3.6 5 4.7 6 1.1 1.2 3.9 4.5 6.2 7.5 2.3 3.2 5.3 6.9 6.9 8.6 1.5 1.7 3.8 4.5 5 6.5 1.4 1.8 2.6 3.3 2.9 3.3s0.6-16.1 0.6-35.6z"/>
<path d="m1891.5 1206.9c-0.6-0.6-1.1-37.5-1.1-81.9v-80.7h30v135h70.8l-2.7 4.2c-1.5 2.3-3.6 5-4.7 6-1.1 1.2-3.9 4.5-6.2 7.5-8 10.8-4.7 10.1-46.8 10.5-21 0.3-38.9 0-39.5-0.6z"/>
<path d="m2194.6 1206.8c-0.6-0.5-1.1-37.4-1.1-81.8v-80.7l65.7 0.3 65.6 0.5 0.5 17.6c0.5 18.8-0.5 22.1-7.5 29.7-2 2.1-5.3 6.2-7.5 9.3-2.3 3-5 6.3-6 7.5-1.1 1.1-3.8 4.4-6 7.5-2.3 3-5.1 6.3-6.2 7.5-1.1 1.1-3.3 4.1-5.1 6.6l-3.3 4.5 4.1 4.5c2.3 2.4 5.9 6.8 8.1 9.9 2.3 3 5 6.3 6 7.5 1.1 1.1 3.8 4.4 6 7.5 2.3 3 5 6.3 6 7.5 1.1 1.1 3.8 4.4 6 7.5 2.3 3 5 6.3 6 7.5 1.1 1.1 3.8 4.4 6 7.5 2.3 3 5.3 6.6 6.6 8 4.5 4.4 0.5 5.6-17.7 5-18.8-0.5-17.6 0-26.7-11.7-2.9-3.8-6-7.8-7.1-9s-5.3-6.6-9.5-12-8.4-10.8-9.5-12-4.2-5.3-7.1-9c-2.9-3.6-6.5-8-8.1-9.8-7.4-8-7.5-9.2-2.9-15.3 2.3-3.2 5.1-6.6 6.2-7.7 1.1-1.2 3.8-4.5 6-7.5 2.3-3.2 5-6.5 6-7.5 1.1-1.2 3.8-4.5 6-7.5 2.3-3.2 5-6.5 6-7.5 1.1-1.2 3.8-4.5 6-7.5 2.3-3.2 5-6.5 6-7.5 0.9-1.1 1.8-2.3 1.8-2.7 0-0.3-15.9-0.6-35.3-0.6h-35.3v66.6c0 59.4-0.3 66.8-2.4 67.5-3.2 1.2-25.4 1.2-26.6-0.2z"/>
<path d="m2368.8 1206.9c-0.8-0.6-1.2-37.5-1.2-81.9v-80.7h29.6l5.9 7.1c3.2 3.8 6.9 8.4 8.1 10.1 1.2 1.8 3 4.1 4.1 5.1 1.1 1.2 3.9 4.5 6.2 7.5 2.3 3.2 5 6.5 6 7.5 1.1 1.2 3.8 4.5 6 7.5 2.3 3.2 4.4 5.9 4.8 6.3 0.5 0.5 3.2 3.8 6 7.5 2.9 3.8 5.6 7.1 6 7.5 0.5 0.5 3.2 3.8 6 7.5 2.9 3.8 5.6 7.1 6 7.5 0.5 0.5 3.2 3.8 6 7.5 2.9 3.8 5.6 7.1 6 7.5 0.5 0.5 3.2 3.8 6 7.5 2.9 3.8 5.6 7.1 6 7.5 0.5 0.5 3.2 3.8 6 7.5 2.9 3.8 5.6 7.1 6 7.5 0.5 0.5 3.2 3.8 6 7.5 2.9 3.8 5.6 7.1 6 7.5 0.5 0.5 3.2 3.8 6 7.5 2.9 3.8 6.5 8.1 7.8 9.6 1.7 1.8 2.1 3.6 1.4 4.4-0.8 0.8-9 1.1-18.5 0.8-18.8-0.5-17.7 0-26.7-11.7-2.9-3.8-5.6-7.1-6-7.5-0.5-0.5-3.2-3.8-6-7.5-2.9-3.8-5.6-7.1-6-7.5-0.5-0.5-3.2-3.8-6-7.5-2.9-3.8-6.8-8.4-8.6-10.5-2-2.1-3.5-4.4-3.5-5 0-1.5-2.6 1.1-7.8 8.3-2.3 3-5 6.3-6 7.5-1.1 1.1-3.8 4.4-6 7.5-2.3 3-5 6.3-6 7.5-1.1 1.1-4.4 5.1-7.2 8.7-2.9 3.8-6 7.8-7.1 9s-2.9 3.6-4.1 5.3c-1.8 2.6-4.2 3-16.2 3.5-7.7 0.3-14.4 0-15-0.6zm35.3-53.1c1.1-1.2 4.2-5.3 7.1-9 2.9-3.6 6.8-8.4 8.7-10.5 6.6-7.2 6.8-8.3 0.8-16.1-3-3.9-5.9-7.5-6.3-8-0.5-0.5-2.7-3.2-4.8-6-2.3-2.9-5.9-7.2-8-9.8l-3.9-4.5v36c0.2 32.3 0.3 35.7 2.4 33 1.2-1.7 3-4.1 4.1-5.3z"/>
<path d="m2626.1 1206.3c-2-0.8-3.5-2-3.5-2.6s-1.8-3.2-4.2-5.7c-2.3-2.4-5.9-6.9-8.1-10.1-2.3-3-5-6.3-6-7.5-1.1-1.1-3.8-4.4-6-7.5-2.3-3-5-6.3-6-7.5-1.1-1.1-3.8-4.4-6-7.5-2.3-3-5-6.3-6-7.5-1.1-1.1-3.8-4.4-6-7.5-2.3-3-5-6.3-6-7.5-1.1-1.1-3.8-4.4-6-7.5-2.3-3-5-6.3-6-7.5-1.1-1.1-4.4-5.1-7.2-8.7-6.6-8.6-9-11.4-13.1-16.4l-3.3-3.9-0.2 35.3-0.2 35.3-3-3.8c-1.7-2.1-4.2-5.1-5.6-6.8s-5-6-7.8-9.8c-2.9-3.8-5.6-7.1-6-7.5-0.5-0.5-2.4-2.7-4.2-5.1-3.2-4.2-3.3-5.3-3.3-44.6v-40.4h31.2l5.7 7.2c3.2 3.9 6.2 7.4 6.6 7.8 0.5 0.5 2.6 3.2 4.8 6.3 2.3 3 5 6.3 6 7.5 1.1 1.1 3.8 4.4 6 7.5 2.3 3 5 6.3 6 7.5 1.1 1.1 3.8 4.4 6 7.5 2.3 3 5 6.3 6 7.5 1.1 1.1 3.8 4.4 6 7.5 2.3 3 5.1 6.3 6.2 7.5 1.1 1.1 3.6 4.4 5.6 7.2 2 2.9 4.5 6.2 5.6 7.2 1.1 1.2 3.9 4.5 6.2 7.5s5.6 7.2 7.5 9.5c1.8 2.1 4.4 5.1 5.6 6.8 2 2.6 2.1-4.2 2.3-54.5v-57.5h30l-0.3 81.5-0.5 81.3-12.8 0.3c-7.1 0.2-14.3-0.3-16.1-1.1z"/>
<path d="m2725.7 1206.8c-0.6-0.5-1.1-30.9-1.1-67.4v-66.5l-22.8-0.5-23-0.5v-27l54.9-0.5 55.1-0.3 4.2 5c2.4 2.9 5.4 6.5 6.6 8 1.2 1.7 4.1 5.1 6.5 7.8 2.3 2.9 4.1 5.7 4.1 6.5s-11.9 1.4-27.8 1.4h-27.8v66.6c0 59.4-0.3 66.8-2.4 67.5-3.2 1.2-25.4 1.2-26.6-0.2z"/>
<path d="m2785 1201.5c-0.3-5.3-0.9-7.2-2.9-7.7-1.5-0.5 0-0.8 3.3-0.8s4.8 0.3 3.5 0.8c-1.8 0.5-2.7 2.7-3.2 7.7l-0.5 7.1-0.3-7.1z"/>
<path d="m2795.5 1200.8c-0.2-4.4 0.3-8 1.1-8 1.7 0 3.6 4.7 2.4 5.7-0.5 0.5-0.9-0.2-1.1-1.4 0-1.2-0.6 0.9-1.2 4.7l-1.1 6.8-0.2-7.8z"/>
<path d="m2808.7 1201.7c0-3.6-0.6-5.7-1.5-5.1-0.9 0.5-1.1-0.2-0.6-1.4 1.8-4.8 3.6-2.3 3.6 5.1 0 4.2-0.3 7.5-0.8 7.5s-0.8-2.7-0.8-6.2z"/>
<path d="m2800.6 1203.9c-1.4-3.6-1.1-4.7 0.6-2.1 1.4 2 1.7 2 3 0 1.7-2.6 2-1.5 0.6 2.1-0.5 1.4-1.5 2.4-2.1 2.4s-1.7-1.1-2.1-2.4z"/>
</g>
</svg>
