<svg width="1621" height="329" viewBox="0 0 1621 329" fill="none" xmlns="http://www.w3.org/2000/svg">
<path d="M3.30491 325.418L0.00500488 322.218V163.619C0.00500488 66.2196 0.605001 4.11999 1.505 2.82C2.70499 0.82001 22.5048 0.52 162.604 0.120002C306.603 -0.179996 322.503 -0.0800209 324.603 2.21996C326.703 4.31995 327.003 20.4198 327.003 163.319V322.218L323.703 325.418C320.403 328.418 319.303 328.418 163.504 328.418C7.60496 328.418 6.60489 328.418 3.30491 325.418V325.418ZM310.603 164.119V16.3199H16.6049V311.918H310.603V164.119Z" fill="#FF4655"/>
<path d="M131.104 225.319C127.904 221.519 124.205 216.919 123.005 215.219C121.805 213.419 120.004 211.119 118.904 210.119C117.804 208.919 115.004 205.619 112.704 202.619C110.404 199.419 107.704 196.119 106.704 195.119C105.604 193.919 102.904 190.619 100.704 187.619C98.4045 184.419 95.7045 181.119 94.7045 180.119C93.6045 178.919 90.9045 175.619 88.7045 172.619C86.4045 169.419 83.7044 166.119 82.8044 165.119C80.2044 162.419 79.9045 97.3193 82.5045 97.3193C84.3045 97.3193 86.1045 99.1194 91.7045 106.619C94.0045 109.619 96.7045 112.919 97.7045 114.119C98.8045 115.219 101.504 118.519 103.704 121.619C106.004 124.619 108.704 127.919 109.704 129.119C110.804 130.219 113.504 133.519 115.704 136.619C118.004 139.619 120.704 142.919 121.704 144.119C122.804 145.219 125.504 148.519 127.704 151.619C130.004 154.619 132.704 157.919 133.704 159.119C134.804 160.219 137.504 163.519 139.704 166.619C142.004 169.619 144.704 172.919 145.704 174.119C146.804 175.219 149.504 178.519 151.704 181.619C154.004 184.619 156.704 187.919 157.704 189.119C158.804 190.219 161.504 193.519 163.704 196.619C166.004 199.619 168.704 202.919 169.704 204.119C170.804 205.219 173.504 208.519 175.704 211.619C178.004 214.619 180.804 217.919 181.904 219.119C186.004 223.219 190.304 230.419 189.404 231.419C188.904 231.919 176.804 232.319 162.704 232.319H136.904L131.005 225.219L131.104 225.319Z" fill="#FF4655"/>
<path d="M174.004 184.719C174.004 183.319 178.204 177.019 181.104 174.219C182.204 173.019 185.004 169.719 187.304 166.719C189.604 163.519 192.304 160.219 193.304 159.219C194.404 158.019 197.104 154.719 199.304 151.719C201.604 148.519 204.304 145.219 205.304 144.219C206.404 143.019 209.104 139.719 211.304 136.719C213.604 133.519 216.304 130.219 217.304 129.219C218.404 128.019 221.104 124.719 223.304 121.719C225.604 118.519 228.304 115.219 229.304 114.219C230.404 113.019 233.104 109.719 235.304 106.719C239.104 101.419 244.504 95.9194 245.704 95.9194C245.904 95.9194 246.204 111.119 246.204 129.519V163.019L241.704 168.919C239.104 172.219 234.904 177.319 232.504 180.519L227.804 186.119H200.904C186.204 186.119 174.004 185.619 174.004 184.919V184.719Z" fill="#FF4655"/>
<path d="M874.7 248.218C855.6 244.618 842.4 237.518 828.6 223.719C822.6 217.719 817.6 211.819 817.6 210.819C817.6 209.619 817.1 208.419 816.5 208.119C815.1 207.619 809.6 196.419 807.3 189.619C803.5 178.919 802.2 163.319 804 153.119C806 142.019 808.5 133.319 810.3 131.219C810.9 130.319 811.5 128.819 811.5 127.619C811.5 124.619 822.6 109.019 829.8 101.819C837.8 94.1194 849.9 86.8195 862.7 82.1195C870.5 79.2195 875.3 78.6195 888.8 78.6195C906.699 78.6195 912.099 79.8195 927.099 87.2194C948.599 97.6194 964.599 116.519 971.699 139.619C975.199 150.719 975.199 178.019 971.699 187.919C965.799 204.419 957.699 217.519 948.299 226.019C942.899 230.819 927.599 241.318 925.899 241.318C925.099 241.318 922.599 242.418 919.999 243.618C914.999 246.018 893.899 250.518 887.999 250.218C885.9 250.018 879.9 249.118 874.5 248.118L874.7 248.218ZM912.499 215.519C924.099 209.819 933.499 200.019 939.399 187.919C943.599 179.219 944.099 176.519 944.199 164.919C944.399 136.819 928.899 116.019 902.299 108.219C879 101.419 852 114.419 840.2 137.819C831.2 155.519 832.5 179.819 843.4 195.919C848.4 203.319 858.6 212.419 864.9 215.119C867.5 216.219 871.2 217.819 873.3 218.719C875.4 219.819 883.099 220.419 890.599 220.119C901.999 219.819 905.499 219.019 912.699 215.619L912.499 215.519Z" fill="#FF4655"/>
<path d="M420.902 244.119C420.402 243.019 420.302 206.419 420.402 162.619L420.902 83.1196L435.002 82.6196C445.402 82.3196 449.602 82.8196 450.502 84.1196C451.102 85.2195 451.702 110.719 451.702 140.819V195.619L455.902 191.119C458.202 188.719 461.802 184.219 464.002 181.019C466.302 178.019 469.002 174.719 470.002 173.519C471.102 172.419 473.802 169.119 476.002 166.019C478.302 163.019 481.002 159.719 482.002 158.519C483.102 157.419 486.402 153.419 489.202 149.819C492.102 146.019 495.202 142.019 496.302 140.819C497.402 139.619 501.602 134.219 505.802 128.819C510.002 123.419 514.202 118.019 515.302 116.819C516.402 115.619 519.502 111.519 522.402 107.819C525.302 104.219 528.602 100.119 529.602 99.1195C530.702 97.9195 533.402 94.6195 535.602 91.6195C542.702 82.0196 541.802 82.3195 562.002 82.3195C572.502 82.3195 580.901 82.9195 580.901 83.7195C580.901 84.5195 580.301 85.4195 579.701 85.7195C579.101 86.0195 576.201 89.2196 573.401 92.9196C570.501 96.5195 567.202 100.619 566.202 101.619C565.102 102.819 562.402 106.119 560.202 109.119C557.902 112.319 555.202 115.619 554.202 116.619C553.102 117.819 550.402 121.119 548.202 124.119C545.902 127.319 543.202 130.619 542.202 131.619C541.102 132.819 538.402 136.119 536.202 139.119C533.902 142.319 531.202 145.619 530.202 146.619C529.102 147.819 526.402 151.119 524.202 154.119C521.902 157.319 519.202 160.619 518.202 161.619C517.102 162.819 514.402 166.119 512.202 169.119C509.902 172.319 507.202 175.619 506.202 176.619C505.102 177.819 502.402 181.119 500.202 184.119C497.902 187.319 495.202 190.619 494.202 191.619C493.102 192.819 490.402 196.119 488.202 199.119C485.902 202.319 483.202 205.619 482.202 206.619C481.102 207.819 478.402 211.119 476.202 214.119C473.902 217.319 471.202 220.619 470.202 221.619C469.102 222.819 466.602 226.119 464.302 229.119C462.002 232.319 457.702 237.219 454.702 240.419L449.102 246.019H435.302C425.802 246.019 421.502 245.419 421.002 244.219L420.902 244.119Z" fill="#FF4655"/>
<path d="M503.502 244.718C503.002 243.918 503.802 242.019 505.302 240.519C506.702 239.019 509.702 235.219 511.902 232.119C514.202 229.119 516.902 225.819 517.902 224.619C519.002 223.519 521.702 220.219 523.902 217.119C526.202 214.119 528.902 210.819 529.902 209.619C531.002 208.519 533.702 205.219 535.902 202.119C538.202 199.119 540.902 195.819 541.902 194.619C543.002 193.519 545.702 190.219 547.902 187.119C550.202 184.119 552.902 180.819 553.902 179.619C555.002 178.519 557.702 175.219 559.902 172.119C562.201 169.119 564.901 165.819 565.901 164.619C567.001 163.519 569.701 160.219 571.901 157.119C574.201 154.119 576.901 150.819 577.901 149.619C579.001 148.519 581.701 145.219 583.901 142.119C586.201 139.119 588.901 135.819 589.901 134.619C591.001 133.519 593.701 130.219 595.901 127.119C598.201 124.119 600.901 120.819 601.901 119.619C603.001 118.519 605.701 115.219 607.901 112.119C610.201 109.119 612.901 105.819 613.901 104.619C615.001 103.519 617.801 99.9193 620.201 96.8194C622.601 93.6194 626.701 89.0194 629.101 86.7195C633.501 82.5195 634.201 82.3195 647.701 82.3195H661.701L661.401 163.819L660.901 245.119H646.201C633.101 245.119 631.201 244.819 629.201 242.119C628.001 240.419 626.201 238.019 625.101 236.819C624.001 235.619 620.901 231.519 618.001 227.819C615.101 224.219 611.801 220.119 610.801 219.119C609.701 217.919 607.001 214.619 604.801 211.619C602.501 208.419 599.801 205.119 598.801 204.119C597.701 202.919 595.001 199.619 592.801 196.619C590.501 193.419 588.101 190.619 587.201 190.019C585.501 188.819 581.301 193.019 572.901 203.819C570.001 207.619 567.301 210.919 566.901 211.319C566.401 211.819 563.701 215.119 560.902 218.819C558.002 222.619 555.302 225.919 554.902 226.319C554.402 226.819 551.702 230.119 548.902 233.819C539.902 245.518 540.902 245.119 521.702 245.519C511.902 245.819 503.802 245.519 503.202 244.619L503.502 244.718ZM631.601 163.819V128.119L627.401 132.619C625.101 135.219 621.501 139.519 619.301 142.719C617.001 145.719 614.301 149.019 613.301 150.219C612.201 151.319 609.401 154.719 607.101 157.919C602.901 163.519 602.901 163.619 605.401 167.719C606.901 170.019 609.001 172.719 610.101 173.719C611.201 174.919 614.001 178.219 616.301 181.219C618.601 184.419 621.601 188.119 623.201 189.819C624.701 191.519 627.001 194.319 628.201 196.319C629.601 198.119 630.801 199.619 631.101 199.619C631.401 199.619 631.701 183.519 631.701 164.019L631.601 163.819Z" fill="#FF4655"/>
<path d="M701.701 245.019C701.101 244.419 700.601 207.519 700.601 163.119V82.4196H730.601V217.419H801.4L798.7 221.619C797.2 223.919 795.1 226.619 794 227.619C792.9 228.819 790.1 232.119 787.8 235.119C779.8 245.919 783.1 245.219 741 245.619C720.001 245.919 702.101 245.619 701.501 245.019H701.701Z" fill="#FF4655"/>
<path d="M1004.8 244.919C1004.2 244.419 1003.7 207.519 1003.7 163.119V82.4196L1069.4 82.7195L1135 83.2195L1135.5 100.819C1136 119.619 1135 122.919 1128 130.519C1126 132.619 1122.7 136.719 1120.5 139.819C1118.2 142.819 1115.5 146.119 1114.5 147.319C1113.4 148.419 1110.7 151.719 1108.5 154.819C1106.2 157.819 1103.4 161.119 1102.3 162.319C1101.2 163.419 1099 166.419 1097.2 168.919L1093.9 173.419L1098 177.919C1100.3 180.319 1103.9 184.719 1106.1 187.819C1108.4 190.819 1111.1 194.119 1112.1 195.319C1113.2 196.419 1115.9 199.719 1118.1 202.819C1120.4 205.819 1123.1 209.119 1124.1 210.319C1125.2 211.419 1127.9 214.719 1130.1 217.819C1132.4 220.819 1135.1 224.119 1136.1 225.319C1137.2 226.419 1139.9 229.719 1142.1 232.819C1144.4 235.819 1147.4 239.418 1148.7 240.818C1153.2 245.218 1149.2 246.418 1131 245.818C1112.2 245.318 1113.4 245.819 1104.3 234.119C1101.4 230.319 1098.3 226.319 1097.2 225.119C1096.1 223.919 1091.9 218.519 1087.7 213.119C1083.5 207.719 1079.3 202.319 1078.2 201.119C1077.1 199.919 1074 195.819 1071.1 192.119C1068.2 188.519 1064.6 184.119 1063 182.319C1055.6 174.319 1055.5 173.119 1060.1 167.019C1062.4 163.819 1065.2 160.419 1066.3 159.319C1067.4 158.119 1070.1 154.819 1072.3 151.819C1074.6 148.619 1077.3 145.319 1078.3 144.319C1079.4 143.119 1082.1 139.819 1084.3 136.819C1086.6 133.619 1089.3 130.319 1090.3 129.319C1091.4 128.119 1094.1 124.819 1096.3 121.819C1098.6 118.619 1101.3 115.319 1102.3 114.319C1103.2 113.219 1104.1 112.019 1104.1 111.619C1104.1 111.319 1088.2 111.019 1068.8 111.019H1033.5V177.619C1033.5 237.019 1033.2 244.419 1031.1 245.119C1027.9 246.319 1005.7 246.319 1004.5 244.919H1004.8Z" fill="#FF4655"/>
<path d="M1179 245.019C1178.2 244.419 1177.8 207.519 1177.8 163.119V82.4196H1207.4L1213.3 89.5195C1216.5 93.3195 1220.2 97.9194 1221.4 99.6194C1222.6 101.419 1224.4 103.719 1225.5 104.719C1226.6 105.919 1229.4 109.219 1231.7 112.219C1234 115.419 1236.7 118.719 1237.7 119.719C1238.8 120.919 1241.5 124.219 1243.7 127.219C1246 130.419 1248.1 133.119 1248.5 133.519C1249 134.019 1251.7 137.319 1254.5 141.019C1257.4 144.819 1260.1 148.119 1260.5 148.519C1261 149.019 1263.7 152.319 1266.5 156.019C1269.4 159.819 1272.1 163.119 1272.5 163.519C1273 164.019 1275.7 167.319 1278.5 171.019C1281.4 174.819 1284.1 178.119 1284.5 178.519C1285 179.019 1287.7 182.319 1290.5 186.019C1293.4 189.819 1296.1 193.119 1296.5 193.519C1297 194.019 1299.7 197.319 1302.5 201.019C1305.4 204.819 1308.1 208.119 1308.5 208.519C1309 209.019 1311.7 212.319 1314.5 216.019C1317.4 219.819 1320.1 223.119 1320.5 223.519C1321 224.019 1323.7 227.319 1326.5 231.019C1329.4 234.819 1333 239.119 1334.3 240.619C1336 242.419 1336.4 244.219 1335.7 245.019C1334.9 245.819 1326.7 246.118 1317.2 245.818C1298.4 245.318 1299.5 245.819 1290.5 234.119C1287.6 230.319 1284.9 227.019 1284.5 226.619C1284 226.119 1281.3 222.819 1278.5 219.119C1275.6 215.319 1272.9 212.019 1272.5 211.619C1272 211.119 1269.3 207.819 1266.5 204.119C1263.6 200.319 1259.7 195.719 1257.9 193.619C1255.9 191.519 1254.4 189.219 1254.4 188.619C1254.4 187.119 1251.8 189.719 1246.6 196.919C1244.3 199.919 1241.6 203.219 1240.6 204.419C1239.5 205.519 1236.8 208.819 1234.6 211.919C1232.3 214.919 1229.6 218.219 1228.6 219.419C1227.5 220.519 1224.2 224.519 1221.4 228.119C1218.5 231.919 1215.4 235.919 1214.3 237.119C1213.2 238.319 1211.4 240.719 1210.2 242.419C1208.4 245.019 1206 245.419 1194 245.919C1186.3 246.219 1179.6 245.918 1179 245.318V245.019ZM1214.3 191.919C1215.4 190.719 1218.5 186.619 1221.4 182.919C1224.3 179.319 1228.2 174.519 1230.1 172.419C1236.7 165.219 1236.9 164.119 1230.9 156.319C1227.9 152.419 1225 148.819 1224.6 148.319C1224.1 147.819 1221.9 145.119 1219.8 142.319C1217.5 139.419 1213.9 135.119 1211.8 132.519L1207.9 128.019V164.019C1208.1 196.319 1208.2 199.719 1210.3 197.019C1211.5 195.319 1213.3 192.919 1214.4 191.719L1214.3 191.919Z" fill="#FF4655"/>
<path d="M1436.3 244.419C1434.3 243.619 1432.8 242.418 1432.8 241.818C1432.8 241.218 1431 238.619 1428.6 236.119C1426.3 233.719 1422.7 229.219 1420.5 226.019C1418.2 223.019 1415.5 219.719 1414.5 218.519C1413.4 217.419 1410.7 214.119 1408.5 211.019C1406.2 208.019 1403.5 204.719 1402.5 203.519C1401.4 202.419 1398.7 199.119 1396.5 196.019C1394.2 193.019 1391.5 189.719 1390.5 188.519C1389.4 187.419 1386.7 184.119 1384.5 181.019C1382.2 178.019 1379.5 174.719 1378.5 173.519C1377.4 172.419 1374.7 169.119 1372.5 166.019C1370.2 163.019 1367.5 159.719 1366.5 158.519C1365.4 157.419 1362.1 153.419 1359.3 149.819C1352.7 141.219 1350.3 138.419 1346.2 133.419L1342.9 129.519L1342.7 164.819L1342.5 200.119L1339.5 196.319C1337.8 194.219 1335.3 191.219 1333.9 189.519C1332.5 187.819 1328.9 183.519 1326.1 179.719C1323.2 175.919 1320.5 172.619 1320.1 172.219C1319.6 171.719 1317.7 169.519 1315.9 167.119C1312.7 162.919 1312.6 161.819 1312.6 122.519V82.1195H1343.8L1349.5 89.3194C1352.7 93.2194 1355.7 96.7194 1356.1 97.1194C1356.6 97.6194 1358.7 100.319 1360.9 103.419C1363.2 106.419 1365.9 109.719 1366.9 110.919C1368 112.019 1370.7 115.319 1372.9 118.419C1375.2 121.419 1377.9 124.719 1378.9 125.919C1380 127.019 1382.7 130.319 1384.9 133.419C1387.2 136.419 1389.9 139.719 1390.9 140.919C1392 142.019 1394.7 145.319 1396.9 148.419C1399.2 151.419 1402 154.719 1403.1 155.919C1404.2 157.019 1406.7 160.319 1408.7 163.119C1410.7 166.019 1413.2 169.319 1414.3 170.319C1415.4 171.519 1418.2 174.819 1420.5 177.819C1422.8 180.819 1426.1 185.019 1428 187.319C1429.8 189.419 1432.4 192.419 1433.6 194.119C1435.6 196.719 1435.7 189.919 1435.9 139.619V82.1195H1465.9L1465.6 163.619L1465.1 244.919L1452.3 245.218C1445.2 245.418 1438 244.918 1436.2 244.119L1436.3 244.419Z" fill="#FF4655"/>
<path d="M1535.9 244.919C1535.3 244.419 1534.8 214.019 1534.8 177.519V111.019L1512 110.519L1489 110.019V83.0195L1543.9 82.5195L1599 82.2195L1603.2 87.2195C1605.6 90.1194 1608.6 93.7194 1609.8 95.2194C1611 96.9194 1613.9 100.319 1616.3 103.019C1618.6 105.919 1620.39 108.719 1620.39 109.519C1620.39 110.319 1608.49 110.919 1592.6 110.919H1564.8V177.519C1564.8 236.919 1564.5 244.319 1562.4 245.019C1559.2 246.219 1537 246.218 1535.8 244.818L1535.9 244.919Z" fill="#FF4655"/>
</svg>
